<?xml version="1.0" encoding="UTF-8" standalone="no"?>
<svg width="209px" height="255px" viewBox="0 0 209 255" version="1.1" xmlns="http://www.w3.org/2000/svg" xmlns:xlink="http://www.w3.org/1999/xlink" xmlns:sketch="http://www.bohemiancoding.com/sketch/ns">
    <!-- Generator: Sketch 3.3.2 (12043) - http://www.bohemiancoding.com/sketch -->
    <title>Untitled</title>
    <desc>Created with Sketch.</desc>
    <defs></defs>
    <g id="Pig" stroke="none" stroke-width="1" fill="none" fill-rule="evenodd" sketch:type="MSPage">
        <ellipse id="body" stroke="#979797" fill-opacity="0.103147645" fill="#BD0FE1" sketch:type="MSShapeGroup" cx="104.5" cy="142.5" rx="103.5" ry="111.5"></ellipse>
        <g id="face" sketch:type="MSLayerGroup" transform="translate(31.000000, 7.000000)" stroke="#979797">
            <circle id="face-background" fill="#D8D8D8" sketch:type="MSShapeGroup" cx="75" cy="75" r="75"></circle>
            <g id="eye-1" transform="translate(33.000000, 24.000000)" sketch:type="MSShapeGroup">
                <ellipse id="eye-background" fill="#D8D8D8" cx="15" cy="15.5" rx="15" ry="15.5"></ellipse>
                <ellipse id="spot" fill="#000000" cx="20" cy="15.5" rx="5" ry="5.5"></ellipse>
            </g>
            <g id="mouth" transform="translate(38.000000, 91.000000)" sketch:type="MSShapeGroup">
                <ellipse id="mouth-background" fill="#D8D8D8" cx="37" cy="24.5" rx="37" ry="24.5"></ellipse>
                <path d="M25,30 C27.7614237,30 30,27.5375661 30,24.5 C30,21.4624339 27.7614237,19 25,19 C22.2385763,19 20,21.4624339 20,24.5 C20,27.5375661 22.2385763,30 25,30 Z" id="spot-2" fill="#000000"></path>
                <ellipse id="spot-1" fill="#000000" cx="49" cy="24.5" rx="5" ry="5.5"></ellipse>
            </g>
            <g id="eye-2" transform="translate(82.000000, 24.000000)" sketch:type="MSShapeGroup">
                <ellipse id="eye-background" fill="#D8D8D8" cx="15" cy="15.5" rx="15" ry="15.5"></ellipse>
                <ellipse id="spot" fill="#000000" cx="12" cy="15.5" rx="5" ry="5.5"></ellipse>
            </g>
        </g>
        <g id="left-ear" sketch:type="MSLayerGroup" transform="translate(7.000000, 2.000000)" stroke="#979797">
            <path d="M58.7265625,14.6757813 C58.7265625,14.6757813 33.3007812,-5.7421875 8.4453125,2.046875 C-16.4101563,9.8359375 24.2851562,53.96875 24.2851562,53.96875" id="ear-background" sketch:type="MSShapeGroup"></path>
            <path d="M42.2851562,28.5117188 C42.2851562,28.5117188 36.5976562,15.0078125 18.09375,15.0078125" id="Path-3" sketch:type="MSShapeGroup"></path>
        </g>
        <g id="right-ear" sketch:type="MSLayerGroup" transform="translate(143.000000, 1.000000)" stroke="#979797">
            <path d="M59.1616074,14.7070312 C59.1616074,14.7070312 33.7358261,-5.7109375 8.88035737,2.078125 C-15.9751114,9.8671875 24.7202011,54 24.7202011,54" id="ear-background" sketch:type="MSShapeGroup" transform="translate(30.000000, 27.153252) scale(-1, 1) translate(-30.000000, -27.153252) "></path>
            <path d="M46.0957031,31.9052056 C46.0957031,31.9052056 40.4082031,18.4012993 21.9042969,18.4012993" id="Path-3-Copy" sketch:type="MSShapeGroup" transform="translate(34.000000, 25.153252) scale(-1, 1) translate(-34.000000, -25.153252) "></path>
        </g>
        <path d="M25.09375,254 L83.4169647,254 C83.4169647,254 80.9743319,223 53.034041,223 C25.09375,223 25.09375,254 25.09375,254 Z" id="left-leg" stroke="#979797" fill="#FFFFFF" sketch:type="MSShapeGroup"></path>
        <path d="M125,254 L183.323215,254 C183.323215,254 180.880582,223 152.940291,223 C125,223 125,254 125,254 Z" id="right-leg" stroke="#979797" fill="#FFFFFF" sketch:type="MSShapeGroup"></path>
        <path d="M68.023082,19.290625 C68.023082,19.290625 100.517223,20.7847656 104.495738,36.4 C108.474254,52.0152344 111.741832,36.4 111.741832,36.4 C111.741832,36.4 121.499645,15.5113281 151.589488,22.3589844 C181.679332,29.2066406 157.689098,58.8414063 157.689098,58.8414063 C157.689098,58.8414063 131.091441,80.2945312 118.995738,72.5210938 C106.900035,64.7476563 112.41566,60.6890625 112.41566,60.6890625 C112.41566,60.6890625 104.601207,53.6988281 104.601207,61.3414063 C104.601207,68.9839844 98.1754258,72.9585938 98.1754258,72.9585938 C98.1754258,72.9585938 68.5308945,80.7144531 55.4508164,66.3785156 C42.3707383,52.0425781 44.491832,35.196875 47.5816758,27.24375 C50.6715195,19.290625 68.023082,19.290625 68.023082,19.290625 Z" id="Sleep-Mask" stroke="#979797" fill="#262626" sketch:type="MSShapeGroup"></path>
        <g id="Sleep" sketch:type="MSLayerGroup" transform="translate(1.000000, 1.000000)">
            <path id="Path-1" stroke="#979797" sketch:type="MSShapeGroup" d=""></path>
            <text id="z" sketch:type="MSTextLayer" font-family="Helvetica" font-size="36" font-weight="normal" fill="#000000">
                <tspan x="25" y="35">z</tspan>
            </text>
            <text id="z-copy" sketch:type="MSTextLayer" font-family="Helvetica" font-size="28" font-weight="normal" fill="#000000">
                <tspan x="41.7773438" y="53.5869141">z</tspan>
            </text>
            <text id="z-copy-2" sketch:type="MSTextLayer" font-family="Helvetica" font-size="28" font-weight="normal" fill="#000000">
                <tspan x="0.77734375" y="28">z</tspan>
            </text>
            <text id="z-copy-3" sketch:type="MSTextLayer" font-family="Helvetica" font-size="24" font-weight="normal" fill="#000000">
                <tspan x="11" y="57">z</tspan>
            </text>
        </g>
    </g>
</svg>